<svg width="25" height="24" viewBox="0 0 25 24" fill="none" xmlns="http://www.w3.org/2000/svg">
<path fill-rule="evenodd" clip-rule="evenodd" d="M12.3333 17C11.2287 17 10.3333 17.8954 10.3333 19C10.3333 20.1046 11.2287 21 12.3333 21C13.4378 21 14.3333 20.1046 14.3333 19C14.3333 17.8954 13.4378 17 12.3333 17Z" fill="white"/>
<path fill-rule="evenodd" clip-rule="evenodd" d="M12.3333 10C11.2287 10 10.3333 10.8954 10.3333 12C10.3333 13.1046 11.2287 14 12.3333 14C13.4378 14 14.3333 13.1046 14.3333 12C14.3333 10.8954 13.4378 10 12.3333 10Z" fill="white"/>
<path fill-rule="evenodd" clip-rule="evenodd" d="M12.3333 3C11.2287 3 10.3333 3.89543 10.3333 5C10.3333 6.10457 11.2287 7 12.3333 7C13.4378 7 14.3333 6.10457 14.3333 5C14.3333 3.89543 13.4378 3 12.3333 3Z" fill="white"/>
</svg>
