<svg width="31" height="25" viewBox="0 0 31 25" fill="none" xmlns="http://www.w3.org/2000/svg">
<path d="M30.0184 4.13505C29.0621 2.4863 26.5384 2.11505 22.7059 3.05255C20.9316 1.6806 18.808 0.833773 16.5765 0.60826C14.3451 0.382747 12.095 0.787591 10.0821 1.7768C8.06919 2.76602 6.37404 4.29994 5.18925 6.20432C4.00445 8.1087 3.3775 10.3072 3.37961 12.5501C3.37977 13.0645 3.41233 13.5784 3.47711 14.0888C0.0158627 17.6751 0.0658629 19.8001 0.742113 20.9651C1.37961 22.0701 2.70961 22.5501 4.45961 22.5501C5.67464 22.5249 6.8825 22.3571 8.05836 22.0501C9.83288 23.4207 11.9561 24.2663 14.1871 24.4909C16.418 24.7156 18.6672 24.3102 20.6793 23.3208C22.6915 22.3315 24.3859 20.7978 25.5703 18.8939C26.7546 16.9901 27.3815 14.7923 27.3796 12.5501C27.3799 12.0381 27.3477 11.5267 27.2834 11.0188C28.8459 9.3938 29.8859 7.85005 30.2396 6.5288C30.4834 5.6138 30.4096 4.8088 30.0184 4.13505ZM15.3796 2.55005C17.6445 2.55238 19.8418 3.32247 21.6126 4.73459C23.3834 6.14671 24.6232 8.11745 25.1296 10.3251C22.9971 12.3326 20.1109 14.3913 17.3709 15.9663C13.9271 17.9426 10.9396 19.1751 8.55711 19.8501C7.0897 18.4815 6.06832 16.7028 5.62594 14.7456C5.18356 12.7884 5.34067 10.7433 6.07681 8.87664C6.81296 7.00997 8.09404 5.40817 9.75328 4.27977C11.4125 3.15137 13.373 2.54864 15.3796 2.55005ZM2.47211 19.9613C2.28961 19.6476 2.39086 19.0563 2.74961 18.3363C3.10437 17.6617 3.53599 17.0304 4.03586 16.4551C4.53136 17.8907 5.29488 19.2192 6.28586 20.3701C4.12961 20.7326 2.78461 20.5013 2.47211 19.9613ZM15.3796 22.5501C13.6935 22.5518 12.0348 22.1242 10.5596 21.3076C13.2672 20.35 15.8798 19.1422 18.3634 17.7001C21.0609 16.1513 23.4484 14.4726 25.3721 12.8151C25.3009 15.419 24.2172 17.8926 22.3514 19.7103C20.4855 21.5281 17.9845 22.5468 15.3796 22.5501ZM28.3071 6.0113C28.0946 6.80005 27.5334 7.70255 26.7284 8.65255C26.2342 7.21521 25.4705 5.88523 24.4784 4.7338C26.2546 4.44005 27.8996 4.46255 28.2909 5.1388C28.4034 5.33505 28.4096 5.6288 28.3071 6.0113Z" fill="white"/>
</svg>
